<?xml version="1.0" encoding="UTF-8" standalone="no"?>
<!-- Created with Inkscape (http://www.inkscape.org/) -->

<svg
   xmlns:dc="http://purl.org/dc/elements/1.1/"
   xmlns:cc="http://creativecommons.org/ns#"
   xmlns:rdf="http://www.w3.org/1999/02/22-rdf-syntax-ns#"
   xmlns:svg="http://www.w3.org/2000/svg"
   xmlns="http://www.w3.org/2000/svg"
   xmlns:sodipodi="http://sodipodi.sourceforge.net/DTD/sodipodi-0.dtd"
   xmlns:inkscape="http://www.inkscape.org/namespaces/inkscape"
   width="10.50159"
   height="12.000002"
   id="svg4874"
   version="1.1"
   inkscape:version="0.92+devel unknown"
   viewBox="0 0 10.50159 12.000002"
   sodipodi:docname="notification.svg">
  <defs
     id="defs4876" />
  <sodipodi:namedview
     id="base"
     pagecolor="#ffffff"
     bordercolor="#666666"
     borderopacity="1.0"
     inkscape:pageopacity="0.0"
     inkscape:pageshadow="2"
     inkscape:zoom="6.0637507"
     inkscape:cx="23.526293"
     inkscape:cy="21.411942"
     inkscape:document-units="px"
     inkscape:current-layer="g4780"
     showgrid="true"
     showborder="true"
     fit-margin-top="0"
     fit-margin-left="0"
     fit-margin-right="0"
     fit-margin-bottom="0"
     inkscape:snap-bbox="true"
     inkscape:bbox-paths="true"
     inkscape:bbox-nodes="true"
     inkscape:snap-bbox-edge-midpoints="true"
     inkscape:snap-bbox-midpoints="true"
     inkscape:object-paths="true"
     inkscape:snap-intersection-paths="true"
     inkscape:object-nodes="true"
     inkscape:snap-smooth-nodes="true"
     inkscape:snap-midpoints="true"
     inkscape:snap-object-midpoints="true"
     inkscape:snap-center="true"
     showguides="true"
     inkscape:guide-bbox="true"
     inkscape:document-rotation="0"
     inkscape:window-width="1920"
     inkscape:window-height="1138"
     inkscape:window-x="0"
     inkscape:window-y="30"
     inkscape:window-maximized="1">
    <inkscape:grid
       type="xygrid"
       id="grid5451"
       empspacing="8"
       originx="-9.4921757"
       originy="-3.9955225" />
    <sodipodi:guide
       orientation="1,0"
       position="-1.4921755,-11.995523"
       id="guide4063"
       inkscape:locked="false" />
    <sodipodi:guide
       orientation="1,0"
       position="-5.4921756,-11.995523"
       id="guide4065"
       inkscape:locked="false" />
    <sodipodi:guide
       orientation="0,1"
       position="-17.492177,84.004479"
       id="guide4067"
       inkscape:locked="false" />
    <sodipodi:guide
       orientation="0,1"
       position="-17.492177,88.004479"
       id="guide4069"
       inkscape:locked="false" />
    <sodipodi:guide
       orientation="0,1"
       position="94.507826,0.0044775904"
       id="guide4071"
       inkscape:locked="false" />
    <sodipodi:guide
       orientation="0,1"
       position="-14.492177,4.0044776"
       id="guide4073"
       inkscape:locked="false" />
    <sodipodi:guide
       orientation="1,0"
       position="82.507825,-11.995523"
       id="guide4075"
       inkscape:locked="false" />
    <sodipodi:guide
       orientation="1,0"
       position="78.507825,-11.995523"
       id="guide4077"
       inkscape:locked="false" />
    <sodipodi:guide
       orientation="0,1"
       position="-17.492177,80.004479"
       id="guide4074"
       inkscape:locked="false" />
    <sodipodi:guide
       orientation="1,0"
       position="2.5078244,-11.995523"
       id="guide4076"
       inkscape:locked="false" />
    <sodipodi:guide
       orientation="0,1"
       position="-14.492177,8.0044779"
       id="guide4078"
       inkscape:locked="false" />
    <sodipodi:guide
       orientation="1,0"
       position="74.507825,-12.995523"
       id="guide4080"
       inkscape:locked="false" />
    <sodipodi:guide
       position="38.507825,-11.995523"
       orientation="1,0"
       id="guide4170"
       inkscape:locked="false" />
    <sodipodi:guide
       position="-17.492177,44.004478"
       orientation="0,1"
       id="guide4172"
       inkscape:locked="false" />
  </sodipodi:namedview>
  <metadata
     id="metadata4879">
    <rdf:RDF>
      <cc:Work
         rdf:about="">
        <dc:format>image/svg+xml</dc:format>
        <dc:type
           rdf:resource="http://purl.org/dc/dcmitype/StillImage" />
        <dc:title></dc:title>
      </cc:Work>
    </rdf:RDF>
  </metadata>
  <g
     inkscape:label="Layer 1"
     inkscape:groupmode="layer"
     id="layer1"
     transform="translate(58.36497,-158.50952)">
    <g
       transform="matrix(0,-1,-1,0,373.50506,516.50504)"
       id="g4845"
       style="display:inline">
      <g
         inkscape:export-ydpi="90"
         inkscape:export-xdpi="90"
         inkscape:export-filename="next01.png"
         transform="matrix(-0.9996045,0,0,1,575.94296,-611.00001)"
         id="g4778"
         inkscape:label="Layer 1">
        <g
           transform="matrix(-1,0,0,1,575.99999,611)"
           id="g4780"
           style="display:inline">
          <path
             style="font-style:normal;font-variant:normal;font-weight:normal;font-stretch:normal;font-size:15px;line-height:125%;font-family:Ubuntu;-inkscape-font-specification:Ubuntu;text-align:center;letter-spacing:0px;word-spacing:0px;writing-mode:lr-tb;text-anchor:middle;fill:#27ae60;fill-opacity:1;stroke:none;stroke-width:0.13638367"
             d="m 357.96632,426.6227 c -10e-6,0.55196 -0.44772,0.99949 -0.99991,0.9995 -0.20762,-2.7e-4 -0.40989,-0.0651 -0.57894,-0.18562 -0.0468,0.27317 -0.11736,0.5254 -0.21474,0.75555 -0.18758,0.44335 -0.44202,0.80711 -0.76358,1.09085 -0.33049,0.28375 -0.71927,0.49624 -1.16589,0.63811 -0.4466,0.133 -0.92889,0.19974 -1.44696,0.19974 h -2.66054 c -0.2944,0 -0.56378,0.0276 -0.80808,0.0831 -0.2444,0.0555 -0.45257,0.1528 -0.62477,0.29163 -0.17774,0.13325 -0.314,0.31375 -0.40843,0.54143 -0.0975,0.22188 -0.14588,0.50041 -0.14813,0.83305 h -0.002 v -1.7492 -6.996 -1.75639 h 0.002 c 0.002,0.33404 0.0505,0.61342 0.1484,0.83625 0.0948,0.22862 0.23152,0.41002 0.41003,0.54383 0.17293,0.13942 0.38279,0.23694 0.62823,0.29268 0.24534,0.0558 0.51563,0.0836 0.81127,0.0836 h 2.65202 c 0.51807,0 1.00036,0.0709 1.44696,0.21279 0.44662,0.133 0.8354,0.34549 1.16589,0.63811 0.32156,0.28376 0.576,0.64776 0.76358,1.09112 0.097,0.2247 0.16737,0.47275 0.21421,0.7425 0.16911,-0.12069 0.37169,-0.18584 0.57947,-0.18616 0.55219,10e-6 0.9999,0.44754 0.99991,0.99951 z m -2.06268,0.2253 v -0.22797 c -4e-5,-0.24894 -0.017,-0.49647 -0.0517,-0.71587 l -2.7e-4,-8e-4 v -0.001 c -0.0407,-0.23417 -0.10048,-0.4404 -0.17771,-0.61946 l -0.002,-0.004 -2.7e-4,-5.3e-4 c -0.15989,-0.37792 -0.36702,-0.66936 -0.62158,-0.89431 l -0.002,-0.002 c -0.26941,-0.23854 -0.58362,-0.41189 -0.96047,-0.52412 -0.006,-0.002 -0.0104,-0.003 -0.008,-0.002 l -8.1e-4,-2.7e-4 -5.3e-4,-2.7e-4 c -0.38873,-0.12349 -0.81421,-0.18723 -1.28258,-0.18723 h -2.65201 c -0.3301,0 -0.64041,-0.0311 -0.93143,-0.0972 h -5.3e-4 l -10e-4,-2.8e-4 c -0.10955,-0.025 -0.21935,-0.0683 -0.3357,-0.11478 l -0.18703,-0.0748 v 2.8e-4 6.48067 l 0.18676,-0.0743 c 0.11557,-0.046 0.2242,-0.0892 0.33224,-0.11372 0.29061,-0.066 0.60006,-0.0967 0.9285,-0.0967 h 2.66054 c 0.46908,0 0.89555,-0.0603 1.28551,-0.17577 l 10e-4,-2.8e-4 0.002,-8e-4 c 0.37896,-0.12123 0.69654,-0.29627 0.96633,-0.52705 l 8.1e-4,-8e-4 10e-4,-8.1e-4 c 0.25315,-0.2244 0.45975,-0.51508 0.61918,-0.89191 0.0785,-0.18554 0.13892,-0.39675 0.17984,-0.63544 v -10e-4 l 2.7e-4,-10e-4 c 0.024,-0.15549 0.0285,-0.33092 0.0357,-0.50282 z"
             id="path4161"
             inkscape:connector-curvature="0"
             sodipodi:nodetypes="ccccccssccccccccccccssccccccccccccccccccccsscccccccccsscccccccccccc" />
          <path
             style="font-style:normal;font-variant:normal;font-weight:normal;font-stretch:normal;font-size:15px;line-height:125%;font-family:Ubuntu;-inkscape-font-specification:Ubuntu;text-align:center;letter-spacing:0px;word-spacing:0px;writing-mode:lr-tb;text-anchor:middle;fill:#808080;fill-opacity:1;stroke:none;stroke-width:0.1363567"
             d="m 348.43356,423.29261 c -0.003,-0.002 -0.005,-0.006 -0.008,-0.008 -0.003,-0.003 -0.008,-0.004 -0.0112,-0.007 z"
             id="path4157"
             inkscape:connector-curvature="0" />
          <path
             style="font-style:normal;font-variant:normal;font-weight:normal;font-stretch:normal;font-size:15px;line-height:125%;font-family:Ubuntu;-inkscape-font-specification:Ubuntu;text-align:center;letter-spacing:0px;word-spacing:0px;writing-mode:lr-tb;text-anchor:middle;fill:#808080;fill-opacity:1;stroke:none;stroke-width:0.1363567"
             d="m 348.43169,429.95172 -0.0189,0.0146 c 0.003,-0.003 0.008,-0.004 0.0112,-0.007 0.003,-0.002 0.005,-0.006 0.008,-0.008 z"
             id="path4344"
             inkscape:connector-curvature="0" />
          <path
             style="font-style:normal;font-variant:normal;font-weight:normal;font-stretch:normal;font-size:15px;line-height:125%;font-family:Ubuntu;-inkscape-font-specification:Ubuntu;text-align:center;letter-spacing:0px;word-spacing:0px;writing-mode:lr-tb;text-anchor:middle;fill:#27ae60;fill-opacity:1;stroke:none;stroke-width:0.13638367"
             d="m 347.59911,428.27682 c -0.90736,-0.0102 -1.63754,-0.7484 -1.63754,-1.65545 0,-0.90706 0.73018,-1.64523 1.63754,-1.65546 z"
             id="path4608"
             inkscape:connector-curvature="0"
             sodipodi:nodetypes="cscc" />
        </g>
      </g>
    </g>
  </g>
</svg>
